<svg width="16" height="16" viewBox="0 0 16 16" fill="none" xmlns="http://www.w3.org/2000/svg">
<path d="M15.1591 8.12257C15.1591 12.1701 11.8784 15.4496 7.83204 15.4496C3.7857 15.4496 0.504974 12.1701 0.504974 8.12257C0.504974 4.07741 3.7857 0.795502 7.83204 0.795502C11.8784 0.795502 15.1591 4.07741 15.1591 8.12257ZM8.02866 3.21816C6.41857 3.21816 5.39165 3.89642 4.58526 5.10187C4.48079 5.25804 4.51574 5.46866 4.66548 5.5822L5.69065 6.35952C5.84442 6.47613 6.06353 6.44839 6.18301 6.29683C6.71079 5.62741 7.07268 5.23922 7.876 5.23922C8.47957 5.23922 9.22613 5.62767 9.22613 6.21295C9.22613 6.65541 8.86087 6.88264 8.26493 7.21676C7.56992 7.60636 6.65025 8.09128 6.65025 9.30435V9.42253C6.65025 9.61832 6.809 9.77706 7.00479 9.77706H8.65929C8.85508 9.77706 9.01382 9.61832 9.01382 9.42253V9.38315C9.01382 8.54225 11.4715 8.50724 11.4715 6.23171C11.4715 4.51806 9.69397 3.21816 8.02866 3.21816ZM7.83204 10.5452C7.08264 10.5452 6.47299 11.1549 6.47299 11.9043C6.47299 12.6536 7.08264 13.2633 7.83204 13.2633C8.58144 13.2633 9.19109 12.6536 9.19109 11.9043C9.19109 11.1549 8.58144 10.5452 7.83204 10.5452Z" fill="#D5B642"/>
</svg>
